<?xml version="1.0" encoding="UTF-8" standalone="no"?>
<!-- Created with Inkscape (http://www.inkscape.org/) -->
<svg id="svg3067" xmlns:rdf="http://www.w3.org/1999/02/22-rdf-syntax-ns#" xmlns="http://www.w3.org/2000/svg" height="297mm" width="210mm" version="1.1" xmlns:cc="http://creativecommons.org/ns#" xmlns:dc="http://purl.org/dc/elements/1.1/">
 <metadata id="metadata3072">
  <rdf:RDF>
   <cc:Work rdf:about="">
    <dc:format>image/svg+xml</dc:format>
    <dc:type rdf:resource="http://purl.org/dc/dcmitype/StillImage"/>
    <dc:title/>
   </cc:Work>
  </rdf:RDF>
 </metadata>
 <g id="layer1" fill-rule="nonzero" fill="#83cd29">
  <path id="path3015" d="m322.21,760.99c-8.1178,0-16.142-2.0578-23.296-6.1942l-74.11-43.88c-11.063-6.1942-5.6832-8.4067-2.0011-9.6678,14.763-5.0802,17.784-6.2677,33.491-15.258,1.6991-0.88504,3.8316-0.52257,5.5307,0.43647l56.938,33.848c2.0586,1.1131,5.0036,1.1131,6.9293,0l221.97-128.16c2.057-1.175,3.3785-3.5341,3.3785-6.0487v-256.18c0-2.5071-1.329-4.8669-3.3785-6.1356l-221.98-128.01c-2.0767-1.246-4.7952-1.246-6.8719,0l-221.88,128.02c-2.1522,1.2686-3.4737,3.702-3.4737,6.1356v256.18c0,2.5146,1.3291,4.8009,3.4737,5.9676l60.827,35.116c32.962,16.519,53.258-2.8902,53.258-22.426v-253.01c0-3.5548,2.8695-6.3508,6.3991-6.3508h28.187c3.454,0,6.3991,2.796,6.3991,6.3508v253.01c0,44.027-23.956,69.32-65.698,69.32-12.913,0-23.012,0-51.179-13.93l-58.193-33.5c-14.461-8.33-23.296-23.88-23.296-40.56v-256.18c0-16.666,8.8352-32.226,23.296-40.493l221.97-128.32c14.084-7.8913,32.736-7.8913,46.668,0l221.98,128.32c14.461,8.3255,23.372,23.827,23.372,40.493v256.18c0,16.674-8.9107,32.154-23.372,40.553l-221.98,128.18c-7.0803,4.1364-15.103,6.1942-23.372,6.1942"/>
  <path id="path3017" d="m390.79,584.53c-97.206,0-117.56-44.608-117.56-82.003,0-3.6078,2.8876-6.4245,6.4187-6.4245h28.771c3.1716,0,5.8146,2.2863,6.3432,5.4579,4.3421,29.211,17.255,43.951,76.024,43.951,46.763,0,66.661-10.612,66.661-35.397,0-14.291-5.6077-24.918-78.309-32.071-60.771-5.9657-98.302-19.396-98.302-67.986,0-44.837,37.757-71.531,101.02-71.531,71.173,0,106.34,24.697,110.76,77.644,0.2265,1.837-0.438,3.6078-1.6039,4.95-1.2687,1.246-2.9648,2.056-4.7197,2.056h-28.847c-2.9451,0-5.6077-2.1315-6.2677-5.0217-6.8537-30.752-23.674-40.551-69.322-40.551-51.03,0-56.995,17.765-56.995,31.112,0,16.166,7.0048,20.804,75.95,29.942,68.208,9.0032,100.66,21.828,100.66,69.777,0,48.369-40.325,76.096-110.69,76.096"/>
 </g>
</svg>
